<mxfile host="app.diagrams.net" modified="2023-05-22T08:07:47.646Z" agent="Mozilla/5.0 (Windows NT 10.0; Win64; x64) AppleWebKit/537.36 (KHTML, like Gecko) Chrome/113.0.0.0 Safari/537.36" version="21.3.2" etag="yTRkzFOQzj-1Pwx_N2r2" type="github">
  <diagram name="第 1 页" id="K1XrkK4gdqFvaciEyy99">
    <mxGraphModel>
      <root>
        <mxCell id="0" />
        <mxCell id="1" parent="0" />
      </root>
    </mxGraphModel>
  </diagram>
</mxfile>
